<mxfile host="app.diagrams.net" modified="2024-03-26T08:11:06.533Z" agent="Mozilla/5.0 (Windows NT 10.0; Win64; x64) AppleWebKit/537.36 (KHTML, like Gecko) Chrome/122.0.0.0 Safari/537.36 Edg/122.0.0.0" version="23.1.7" etag="wPJyi0pv_e1QIcJEl_Kf" type="github">
  <diagram name="第 1 页" id="fz0O-1NMEemMYtfG4bKc">
    <mxGraphModel>
      <root>
        <mxCell id="0" />
        <mxCell id="1" parent="0" />
      </root>
    </mxGraphModel>
  </diagram>
</mxfile>
